<svg xmlns="http://www.w3.org/2000/svg" viewBox="0 0 7030.08 1412.8"><defs><style>.cls-1,.cls-2{fill:#fff;}.cls-2{fill-rule:evenodd;}</style></defs><g id="Layer_2" data-name="Layer 2"><g id="Layer_1-2" data-name="Layer 1"><g id="vaiot-logo"><path class="cls-1" d="M3155,429.75l-269.7,556.4h0l-269.71-556.4H2755l130.21,295.94,130.2-295.94Z"/><path class="cls-1" d="M3785.33,919.07l-35,67.08H3619.21l262.28-567.59h0l262.27,567.59H4012.61l-35-66.31Zm170.1-101-57.31-118.38-57.31,118.38Z"/><path class="cls-1" d="M4872.52,985.47H4753.78V418.56h118.74Z"/><path class="cls-1" d="M6040.16,702.34q0,60.36-21.34,111.75t-58,90a263.64,263.64,0,0,1-85.84,60.3q-49.27,21.78-105,21.74t-105-21.74a263.37,263.37,0,0,1-85.85-60.3q-36.65-38.58-58-90t-21.34-111.75q0-59.37,21.34-111.27t58-90.47a263.72,263.72,0,0,1,85.85-60.32q49.21-21.72,105-21.72t105,21.72a264,264,0,0,1,85.84,60.32q36.65,38.55,58,90.47T6040.16,702.34ZM5915,712.41q0-33.4-11.25-61.73a152.18,152.18,0,0,0-30.63-48.85,140.84,140.84,0,0,0-45.35-32.15,137.8,137.8,0,0,0-110.54,0,140.25,140.25,0,0,0-45.31,32.15,151.57,151.57,0,0,0-30.66,48.85Q5630,679,5630,712.41t11.22,61.73A151.25,151.25,0,0,0,5671.89,823a140,140,0,0,0,45.31,32.16,137.69,137.69,0,0,0,110.54,0A140.57,140.57,0,0,0,5873.09,823a151.86,151.86,0,0,0,30.63-48.85Q5915,745.84,5915,712.41Z"/><path class="cls-1" d="M6878.82,986.15H6757V544.69H6605.73V418.56h424.35V544.69H6878.82Z"/></g><path id="vaiot-logo-2" data-name="vaiot-logo" class="cls-2" d="M475.45,10,893,431.38a34.39,34.39,0,0,1,0,48.45L475.45,901.2a33.64,33.64,0,0,1-47.57.33l-.33-.33L10,479.83a34.42,34.42,0,0,1,0-48.45L427.55,10a33.64,33.64,0,0,1,47.57-.33ZM972.51,511.6,1390.09,933a34.4,34.4,0,0,1,0,48.45L972.51,1402.78a33.63,33.63,0,0,1-47.57.33l-.33-.33L507,981.42A34.4,34.4,0,0,1,507,933L924.61,511.6a33.64,33.64,0,0,1,47.57-.32ZM1469.59,10l417.59,421.36a34.39,34.39,0,0,1,0,48.45L1469.59,901.2a33.67,33.67,0,0,1-47.6.32l-.31-.32L1004.09,479.83a34.39,34.39,0,0,1,0-48.45L1421.68,10a33.66,33.66,0,0,1,47.6-.32Z"/></g></g></svg>