<?xml version="1.0" encoding="UTF-8" standalone="no"?>
<svg
   viewBox="0 0 7030.08 1412.8"
   version="1.1"
   id="svg49"
   xmlns="http://www.w3.org/2000/svg"
   xmlns:svg="http://www.w3.org/2000/svg">
  <defs
     id="defs33">
    <style
       id="style31">.cls-1,.cls-2{fill:#fff;}.cls-2{fill-rule:evenodd;}</style>
  </defs>
  <g
     id="Layer_2"
     data-name="Layer 2">
    <g
       id="Layer_1-2"
       data-name="Layer 1">
      <g
         id="vaiot-logo">
        <path
           class="cls-1"
           d="M3155,429.75l-269.7,556.4h0l-269.71-556.4H2755l130.21,295.94,130.2-295.94Z"
           id="path35"
           style="fill:#fcd535;fill-opacity:1" />
        <path
           class="cls-1"
           d="M3785.33,919.07l-35,67.08H3619.21l262.28-567.59h0l262.27,567.59H4012.61l-35-66.31Zm170.1-101-57.31-118.38-57.31,118.38Z"
           id="path37"
           style="fill:#fcd535;fill-opacity:1" />
        <path
           class="cls-1"
           d="M4872.52,985.47H4753.78V418.56h118.74Z"
           id="path39"
           style="fill:#fcd535;fill-opacity:1" />
        <path
           class="cls-1"
           d="M6040.16,702.34q0,60.36-21.34,111.75t-58,90a263.64,263.64,0,0,1-85.84,60.3q-49.27,21.78-105,21.74t-105-21.74a263.37,263.37,0,0,1-85.85-60.3q-36.65-38.58-58-90t-21.34-111.75q0-59.37,21.34-111.27t58-90.47a263.72,263.72,0,0,1,85.85-60.32q49.21-21.72,105-21.72t105,21.72a264,264,0,0,1,85.84,60.32q36.65,38.55,58,90.47T6040.16,702.34ZM5915,712.41q0-33.4-11.25-61.73a152.18,152.18,0,0,0-30.63-48.85,140.84,140.84,0,0,0-45.35-32.15,137.8,137.8,0,0,0-110.54,0,140.25,140.25,0,0,0-45.31,32.15,151.57,151.57,0,0,0-30.66,48.85Q5630,679,5630,712.41t11.22,61.73A151.25,151.25,0,0,0,5671.89,823a140,140,0,0,0,45.31,32.16,137.69,137.69,0,0,0,110.54,0A140.57,140.57,0,0,0,5873.09,823a151.86,151.86,0,0,0,30.63-48.85Q5915,745.84,5915,712.41Z"
           id="path41"
           style="fill:#fcd535;fill-opacity:1" />
        <path
           class="cls-1"
           d="M6878.82,986.15H6757V544.69H6605.73V418.56h424.35V544.69H6878.82Z"
           id="path43"
           style="fill:#fcd535;fill-opacity:1" />
      </g>
      <path
         id="vaiot-logo-2"
         data-name="vaiot-logo"
         class="cls-2"
         d="M475.45,10,893,431.38a34.39,34.39,0,0,1,0,48.45L475.45,901.2a33.64,33.64,0,0,1-47.57.33l-.33-.33L10,479.83a34.42,34.42,0,0,1,0-48.45L427.55,10a33.64,33.64,0,0,1,47.57-.33ZM972.51,511.6,1390.09,933a34.4,34.4,0,0,1,0,48.45L972.51,1402.78a33.63,33.63,0,0,1-47.57.33l-.33-.33L507,981.42A34.4,34.4,0,0,1,507,933L924.61,511.6a33.64,33.64,0,0,1,47.57-.32ZM1469.59,10l417.59,421.36a34.39,34.39,0,0,1,0,48.45L1469.59,901.2a33.67,33.67,0,0,1-47.6.32l-.31-.32L1004.09,479.83a34.39,34.39,0,0,1,0-48.45L1421.68,10a33.66,33.66,0,0,1,47.6-.32Z"
         style="fill:#fcd535;stroke:#ffcc00;fill-opacity:1" />
    </g>
    <path
       style="fill:#fcd535;fill-opacity:1;stroke:#ffcc00;stroke-width:6.56403"
       d="M 719.91583,1190.6215 C 600.14384,1069.2664 501.26455,964.86286 500.18408,958.61366 497.26489,941.7297 928.58694,505.43059 948.19749,505.43059 c 20.35928,0 451.72901,434.79624 448.72841,452.29281 -2.9177,17.01314 -433.96342,453.5438 -447.8451,453.5438 -6.27593,0 -109.25549,-99.1512 -229.16497,-220.6457 z"
       id="path2304" />
    <path
       style="fill:#fcd535;fill-opacity:1;stroke:#ffcc00;stroke-width:6.56403"
       d="M 1215.9505,687.54629 C 1087.8184,559.3714 997.73311,464.27922 997.73311,457.20054 c 0,-13.88437 420.18199,-444.561955 441.47559,-452.5030156 11.8977,-4.43704911 43.1873,24.1361506 226.4242,206.7670556 116.9404,116.55358 216.9737,220.15341 222.2963,230.22186 9.5347,18.03602 9.0702,18.9566 -31.4651,62.35832 -132.4389,141.80465 -397.0851,401.79188 -408.9918,401.79188 -8.722,0 -88.4659,-75.18654 -231.5218,-218.29035 z"
       id="path2343" />
    <path
       style="fill:#fcd535;fill-opacity:1;stroke:#ffcc00;stroke-width:6.56403"
       d="M 282.0185,749.94084 C 197.10556,664.19815 98.724411,563.98894 63.393717,527.25369 L -0.84390104,460.46234 8.9550544,441.92125 C 14.344479,431.72366 114.24274,328.20754 230.95119,211.88542 403.48996,39.917818 445.70265,1.0586395 456.81537,3.9646783 464.33221,5.9303773 566.22171,105.29682 683.23647,224.779 c 153.93591,157.18186 212.75412,221.39001 212.75412,232.25038 0,20.36454 -425.59431,448.80726 -445.82346,448.80726 -9.25264,0 -64.34512,-51.07796 -168.14863,-155.8958 z"
       id="path2382" />
    <path
       style="fill:#fcd535;fill-opacity:1;stroke:#ffcc00;stroke-width:6.56403"
       d="M 731.79416,1192.3327 C 614.99647,1074.4574 517.51897,971.97791 515.17751,964.60062 c -3.29447,-10.37995 5.88404,-24.77853 40.58718,-63.67022 60.2397,-67.51043 366.97301,-373.8521 382.82418,-382.33539 10.84539,-5.80427 25.98145,5.77485 109.26303,83.58645 53.1705,49.67825 152.2187,149.00213 220.107,220.71974 l 123.4335,130.39565 -12.84,18.0322 c -18.177,25.52729 -376.6177,389.55905 -408.22433,414.59205 l -26.17446,20.7305 z"
       id="path2421" />
    <path
       style="fill:#fcd535;fill-opacity:1;stroke:#ffcc00;stroke-width:6.56403"
       d="M 1333.7129,794.82426 C 1272.633,737.067 1173.3923,637.81974 1113.1781,574.27474 l -109.4805,-115.53635 28.0158,-33.4619 c 15.4088,-18.40405 112.5758,-119.3427 215.9268,-224.30812 177.8245,-180.602298 188.7565,-190.454448 203.6661,-183.547539 19.6091,9.083992 251.5071,234.350899 356.1493,345.965149 65.2452,69.59243 77.2057,85.51664 73.9557,98.46516 -3.8794,15.45692 -358.3634,375.98671 -409.5155,416.49999 l -27.1286,21.48624 z"
       id="path2460" />
  </g>
</svg>
